<svg xmlns="http://www.w3.org/2000/svg" xmlns:xlink="http://www.w3.org/1999/xlink" width="1200" height="800" viewBox="-27.751 -13.12 240.508 78.721"><defs><linearGradient id="a" x1="-.037" x2=".189" y1=".358" y2=".423"><stop offset="0%" stop-color="#FFD521"/><stop offset="5%" stop-color="#FFD521"/><stop offset="50.112%" stop-color="#F50000"/><stop offset="95%" stop-color="#B900B4"/><stop offset="95.008%" stop-color="#B900B4"/><stop offset="100%" stop-color="#B900B4"/></linearGradient><linearGradient xlink:href="#a" id="b" x1="-3.162" x2="19.117" y1="35.328" y2="41.784" gradientTransform="scale(1.87756 .5326)" gradientUnits="userSpaceOnUse"/></defs><path fill="url(#b)" d="M10.453 52.328C6.665 50.743 2.5 46.269 1.185 40.643c-1.668-7.123 5.267-10.131 5.834-9.15.666 1.164-1.247 1.555-1.638 5.248-.502 4.776 1.712 10.112 4.507 12.454.521.428.496-.176.496-1.29 0-2.008-.112-19.973-.112-23.724 0-5.077-.208-6.676-.592-8.254-.377-1.606-.988-2.688-.528-3.11.521-.465 2.736.643 4.02 2.435 1.536 2.147 2.077 4.727 2.177 7.527.114 3.372.107 8.733.114 11.785 0 2.807.044 11.012-.044 15.952-.026 1.208-3.386 2.473-4.966 1.812m174.644-26.655c-.541 0-.798-.566-1.006-1.517-.718-3.316-1.472-4.064-2.448-4.064-1.088 0-2.064 1.641-2.322 4.927-.194 2.58-.164 7.337.088 12.069.051.97-.214 1.93-2.82 2.881-1.125.403-2.756 1.007-3.566-.956-2.298-5.532-3.191-9.936-3.406-11.717-.005-.093-.118-.107-.138.107-.131 1.429-.434 4.028-.471 9.49-.013 1.056-.233 1.97-1.416 2.712-.761.478-3.077 1.334-3.915.32-.717-.83-1.553-3.058-2.428-5.701-.705-2.152-1.196-3.612-1.196-3.612s.005 5.803.019 8.005c0 .831-.567 1.107-.736 1.158-.775.226-2.304.597-2.945.597-.799 0-.988-.447-.988-1.095 0-.081-.132-7.632-.132-12.912v-.742c-.435-2.43-1.868-5.727-3.423-5.727s-2.29 1.379-2.29 7.67c0 3.67.113 5.267.163 7.923.031 1.53.094 2.706.088 2.976-.013.812-1.429 1.228-2.084 1.379a6.287 6.287 0 0 1-1.685.19c-.63-.04-1.076-.454-1.076-1.034v-.88c-.812 1.283-2.128 2.177-3.008 2.435-2.353.698-4.815.076-6.67-2.516-1.473-2.066-2.36-4.399-2.706-7.754-.259-2.454-.176-4.94.283-7.041-.554-2.372-1.574-3.348-2.687-3.348-1.624 0-2.793 2.644-2.661 7.219.094 3.006.692 5.114 1.352 8.173.284 1.303.05 1.981-.522 2.643-.522.592-1.642.9-3.246.529-1.14-.27-2.782-.56-4.274-.781 0 0 .088.36.164.994.384 3.33-3.234 3.059-4.386 1.995-.692-.635-1.164-1.384-1.34-2.73-.283-2.14 1.46-3.147 1.46-3.147-.572-2.618-1.97-6.04-3.423-8.514-.775-1.328-1.367-2.304-2.133-3.348-.007.384-.007.775-.007 1.158-.014 5.506.056 9.841.088 11.402.032 1.53.094 2.675.094 2.946-.013.592-.358.824-1.089 1.101a7.874 7.874 0 0 1-2.19.497c-.987.075-1.591-.453-1.573-1.076v-.837c-.817 1.283-2.133 2.177-3 2.435-2.36.698-4.82.076-6.677-2.516-1.467-2.066-2.436-4.954-2.713-7.722-.25-2.593-.207-4.782.145-6.633-.377-1.85-1.453-3.788-2.673-3.788-1.555 0-2.443 1.379-2.443 7.67 0 3.67.113 5.267.17 7.923.031 1.53.089 2.706.082 2.976-.007.812-1.421 1.228-2.083 1.379-.685.163-1.284.213-1.737.19-.604-.051-1.025-.586-1.025-.995v-.919c-.818 1.283-2.134 2.177-3.008 2.435-2.354.698-4.795.062-6.664-2.516-1.22-1.682-2.208-3.55-2.718-7.691a27.735 27.735 0 0 1-.2-3.36c-.486-2.97-2.632-6.393-4.38-6.393-1.033 0-2.014 1.989-2.014 6.236 0 5.65.352 13.705.414 14.485 0 0 2.215.039 2.65.044 1.101.007 2.108-.019 3.574.057.743.038 1.454 2.687.686 3.02-.34.146-2.782.278-3.75.296-.818.019-3.078.188-3.078.188s.202 5.343.246 5.903c.038.479-.566.717-.918.863-.85.364-1.612.534-2.506.717-1.252.257-1.812.005-1.918-1.044-.164-1.593-.252-6.263-.252-6.263-.919 0-4.034.184-4.947.184-.848 0-1.768-3.65-.59-3.694 1.353-.051 3.7-.102 5.26-.144 0 0-.07-8.188-.07-10.711v-.78c-.861-4.473-3.876-6.89-3.876-6.89.648 2.963-.673 5.185-3.064 7.06-.881.698-2.617 2.014-4.563 3.442 0 0 1.127 1.113 2.127 3.341.705 1.58.737 3.398-1 3.795-2.87.66-5.23-1.448-5.94-3.7-.541-1.737-.257-3.033.817-4.373l.246-.303a113.47 113.47 0 0 0-2.284-4.228c-2.095-3.619-3.675-6.476-4.864-6.476-.956 0-.944 2.901-.944 5.62 0 2.341.176 5.87.314 9.52.044 1.203-.56 1.895-1.572 2.517-.617.378-1.926 1.12-2.688 1.12-1.132 0-4.417-.15-7.518-9.117-.39-1.133-1.159-3.19-1.159-3.19l.07 10.785c0 .252-.133.49-.44.661-.523.283-1.926.861-3.16.861-.598 0-.894-.277-.894-.824l-.1-16.864c0-1.284.03-2.781.157-3.436.126-.654.334-1.189.586-1.509.252-.31.546-.548 1.025-.655.447-.094 2.907-.402 3.033.535.158 1.127.163 2.34 1.454 6.89 2.013 7.073 4.632 10.52 5.865 11.749.22.213.465.226.452-.127-.056-1.553-.239-5.424-.364-8.715-.333-8.816 1.264-10.445 3.561-10.445 1.75 0 4.216 1.743 6.866 6.147 1.654 2.75 3.253 5.437 4.41 7.381.794-.741 1.7-1.541 2.6-2.397 2.095-1.982 2.78-3.87 2.322-5.658-.347-1.37-1.662-2.78-3.996-1.409-.68.397-.97.705-1.655 1.159-.365.245-.932.314-1.265.062-.882-.661-1.379-1.497-1.668-2.536-.27-1.013.742-1.541 1.793-2.006.9-.41 2.839-.768 4.077-.812 4.827-.164 8.691 2.328 11.378 8.746.485-5.544 2.53-8.684 6.085-8.684 2.384 0 4.77 3.078 5.815 6.104.294-1.233.741-2.302 1.314-3.216 2.744-4.341 8.067-3.41 10.735.278.83 1.145.957 1.554.957 1.554.39-3.481 3.196-4.706 4.802-4.706 1.805 0 3.656.854 4.957 3.788a8.39 8.39 0 0 1 .51-.914c2.738-4.341 8.06-3.41 10.735.278.12.182.234.333.327.478l.083-2.29s-1.53-1.398-2.467-2.259c-4.121-3.783-7.256-6.652-7.488-9.987-.29-4.26 3.159-5.84 5.776-6.046 2.77-.222 5.148 1.308 6.607 3.46 1.284 1.888 2.128 5.946 2.065 9.961-.025 1.61-.064 3.65-.101 5.845a45.329 45.329 0 0 1 4.588 6.292c1.641 2.707 3.39 6.351 4.284 9.188 0 0 1.53-.013 3.153.088.523.032.673-.076.572-.453-.113-.459-2.05-7.941-.283-12.925 1.215-3.41 3.94-4.511 5.563-4.511 1.893 0 3.707 1.435 4.675 3.561.12-.233.24-.465.378-.68 2.738-4.341 8.042-3.404 10.735.278.61.836.95 1.554.95 1.554.58-3.606 3.386-4.72 4.99-4.72 1.68 0 3.265.686 4.556 3.732.05-1.341.132-2.436.27-2.781.082-.215.56-.479.9-.61 1.535-.567 3.097-.297 3.669-.177.402.082.717.396.756 1.227.112 2.177.042 5.833.704 8.557 1.113 4.556 2.145 6.324 2.636 7.199.272.492.585.573.592.057a94.7 94.7 0 0 1 .51-8.288c.308-3.045.73-4.85 1.056-5.424.92-1.629 2.064-1.705 2.99-1.705.592 0 1.825.164 1.717 1.203-.056.502.039 3.63 1.127 8.122.717 2.939 1.906 5.588 2.334 6.558.164.358.234.081.234.025-.095-2.02-.296-8.633.521-12.245 1.121-4.903 4.348-5.45 5.475-5.45 2.397 0 4.368 1.826 5.028 6.632.164 1.159-.076 2.052-.787 2.052m-100.612 2.97c-.132-2.542-.63-4.67-1.421-6.211-1.448-2.8-4.298-3.681-5.55.352-.913 2.913-.605 6.89-.22 9.037.552 3.184 1.956 5.436 4.146 5.23 2.24-.222 3.334-3.11 3.045-8.408m21.955-.038c-.125-2.397-.748-4.813-1.428-6.173-1.403-2.819-4.336-3.7-5.55.352-.83 2.776-.635 6.356-.22 8.61.535 2.931 1.825 5.657 4.147 5.657 2.259 0 3.372-2.48 3.051-8.446m.573-16.385c-.032-4.387-.717-8.225-2.19-9.345-2.102-1.586-4.927-.39-4.342 2.806.516 2.832 2.964 5.72 6.539 9.251 0 0 .012-.805-.007-2.712m37.907 16.36c-.127-2.637-.712-4.695-1.435-6.148-1.404-2.819-4.31-3.693-5.55.352-.674 2.21-.706 5.897-.22 8.973.49 3.135 1.869 5.5 4.146 5.294 2.252-.215 3.304-3.11 3.059-8.471" transform="matrix(1 0 0 -1 -.927 52.51)"/></svg>